<svg width="132" height="132" viewBox="0 0 132 132" fill="none" xmlns="http://www.w3.org/2000/svg">
<g opacity="0.8">
<path d="M104.375 39.4327V37.6191H107.93C108.3 37.6191 108.665 37.7684 108.93 38.0338C109.196 38.2992 109.345 38.6586 109.345 39.0346V54.988C109.345 55.364 109.196 55.7234 108.93 55.9888C108.665 56.2542 108.3 56.4035 107.93 56.4035H104.375V39.4327ZM23.977 56.4194H27.687V40.3231C27.687 39.4328 27.687 38.5536 27.7865 37.6744H23.9771C23.1975 37.6744 22.5616 38.3103 22.5616 39.09V54.9867C22.5616 55.3627 22.7109 55.7221 22.9763 55.9875C23.2417 56.253 23.6011 56.4023 23.9771 56.4023L23.977 56.4194ZM33.6196 80.6835C42.9803 86.3788 53.6621 89.5473 64.6146 89.868V121.962H16.3458C13.9462 121.95 12 120.004 12 117.599V103.443C12.0055 97.604 14.2502 91.986 18.2699 87.7504C22.2894 83.5147 27.7862 80.9877 33.6196 80.6835ZM37.5507 93.0087C33.5422 93.0087 29.9317 95.4251 28.4002 99.1299C26.8632 102.829 27.7147 107.092 30.5455 109.923C33.3818 112.76 37.6391 113.606 41.3436 112.074C45.048 110.543 47.4587 106.926 47.4587 102.917C47.4587 100.291 46.4137 97.7695 44.5559 95.9116C42.6981 94.0537 40.1825 93.0087 37.5507 93.0087ZM30.645 102.89C30.645 100.07 32.3479 97.5208 34.9576 96.4426C37.5674 95.3643 40.5695 95.9615 42.56 97.9632C44.5561 99.9594 45.1531 102.962 44.0639 105.572C42.9802 108.176 40.4314 109.874 37.6116 109.868C33.7578 109.863 30.645 106.739 30.645 102.89ZM36.6881 101.192C36.7102 102.204 37.3406 103.106 38.286 103.471C39.2315 103.836 40.3041 103.598 41.0063 102.868C41.703 102.133 41.8965 101.054 41.4873 100.125C41.0782 99.1964 40.1493 98.6102 39.1374 98.6323C38.474 98.6434 37.8437 98.9254 37.3847 99.4065C36.9203 99.882 36.6715 100.529 36.6881 101.192ZM97.2528 78.0184C87.9309 83.7912 77.2103 86.9098 66.2408 87.037C66.1689 87.0315 66.0915 87.0315 66.0141 87.037C65.9478 87.0315 65.8759 87.0315 65.804 87.037C54.8455 86.9209 44.131 83.8189 34.809 78.0627C32.1937 76.5033 30.5848 73.6999 30.5627 70.6586V40.3232C30.6457 20.6045 46.2159 4.3369 65.4063 4H66.031C75.4248 4 84.4316 7.7324 91.0671 14.3789C97.7074 21.0253 101.428 30.0378 101.417 39.4328V70.5751C101.423 73.6108 99.8458 76.4369 97.2528 78.0184ZM40.9344 72.6105C40.9344 71.5876 40.3152 70.6641 39.3697 70.2716C38.4242 69.879 37.335 70.0947 36.6107 70.819C35.8864 71.5434 35.6708 72.6326 36.0633 73.5838C36.4504 74.5293 37.3792 75.1487 38.402 75.1487C39.8009 75.1487 40.9344 74.0095 40.9344 72.6105ZM48.2935 76.6471C48.2935 75.6186 47.6742 74.6952 46.7287 74.3027C45.7777 73.9156 44.6885 74.1313 43.9643 74.8612C43.24 75.5855 43.0299 76.6804 43.4224 77.6259C43.8205 78.5714 44.7494 79.1853 45.7778 79.1798C46.4469 79.1798 47.0882 78.9143 47.5637 78.4388C48.0336 77.9633 48.299 77.3162 48.2935 76.6471ZM97.9777 44.0893C97.9777 35.618 94.6106 27.4891 88.6226 21.4956C82.6291 15.5071 74.5015 12.1396 66.031 12.1396C57.5606 12.1396 49.4323 15.5071 43.4394 21.4956C37.4515 27.4896 34.0843 35.618 34.0843 44.0893C34.0843 52.5606 37.4515 60.6896 43.4394 66.683C49.4329 72.6715 57.5606 76.039 66.031 76.039C68.3642 76.039 70.692 75.7847 72.9643 75.2759C73.3458 75.1985 73.6721 74.9663 73.8822 74.64C74.0867 74.3193 74.1476 73.9212 74.0591 73.5452C73.9817 73.1692 73.755 72.8319 73.4288 72.6273C73.1026 72.4172 72.7045 72.3508 72.3285 72.4448C70.2607 72.9093 68.1486 73.1415 66.031 73.136C56.4105 73.1249 47.421 68.3475 42.0296 60.3794C36.6389 52.4114 35.5497 42.2872 39.1159 33.3508C42.6875 24.415 50.4503 17.8348 59.849 15.7724C69.2428 13.7099 79.0507 16.4414 86.0344 23.0657C93.012 29.6846 96.2575 39.339 94.6928 48.8275C93.128 58.3216 86.9633 66.4229 78.2328 70.4586C77.503 70.7959 77.1878 71.6585 77.5251 72.3829C77.8624 73.1128 78.7194 73.428 79.4492 73.0907C84.9727 70.5195 89.6502 66.4222 92.9289 61.2852C96.2131 56.1483 97.9612 50.1821 97.9777 44.0893ZM61.7853 25.8697C61.5199 25.5877 61.1495 25.4328 60.7569 25.4328C60.3699 25.4328 59.9994 25.5877 59.7341 25.8697L46.2156 39.9147C45.9336 40.1801 45.7733 40.5506 45.7733 40.9377C45.7733 41.3302 45.9336 41.7007 46.2156 41.9661C46.481 42.2316 46.8459 42.3809 47.2219 42.3753C47.62 42.3809 47.9959 42.215 48.2669 41.9219L61.7853 27.9101C62.0618 27.6447 62.2166 27.2742 62.2166 26.8927C62.2166 26.5056 62.0618 26.1351 61.7853 25.8697ZM49.0465 47.103C48.7645 47.374 48.6042 47.7445 48.6042 48.1315C48.6042 48.5186 48.7645 48.8891 49.0465 49.1545C49.3174 49.4144 49.6768 49.5581 50.0528 49.5526C50.4453 49.5581 50.8268 49.3978 51.0978 49.1158L66.7835 32.8482C67.3364 32.2731 67.3198 31.3607 66.7448 30.8023C66.1698 30.2493 65.2575 30.2659 64.6991 30.841L49.0465 47.103ZM42.7876 47.6007C42.7213 46.8155 42.0357 46.2404 41.2561 46.3068C40.471 46.3731 39.8905 47.0588 39.9568 47.8384C40.9244 56.8017 46.4202 64.6425 54.5145 68.6018C62.609 72.5665 72.1691 72.0965 79.8378 67.3632C87.5066 62.6299 92.2062 54.2859 92.2892 45.2734C92.3776 36.2658 87.8273 27.8394 80.2525 22.9614C72.6722 18.0844 63.1188 17.4375 54.9518 21.2528C46.7855 25.0626 41.1459 32.7984 40.0177 41.7402C39.9458 42.1217 40.0398 42.5143 40.2665 42.8295C40.4987 43.1447 40.847 43.3493 41.234 43.399C41.6155 43.4654 42.0136 43.3714 42.3288 43.1392C42.644 42.9069 42.843 42.553 42.8872 42.166C44.076 34.2034 49.2677 27.4074 56.6323 24.1671C63.9969 20.9268 72.5119 21.6899 79.1857 26.1965C85.8536 30.6975 89.7515 38.3062 89.5028 46.3512C89.254 54.3967 84.8917 61.7511 77.9583 65.8321C71.0195 69.9129 62.4722 70.1452 55.3229 66.4569C48.1683 62.7632 43.4133 55.6633 42.7223 47.6456L42.7876 47.6007ZM98.4421 80.6837C89.0815 86.379 78.3997 89.542 67.4472 89.8682V121.962H74.3805V102.608C74.4302 100.28 76.3046 98.4058 78.6268 98.3616H100.372C102.716 98.3616 104.618 100.264 104.618 102.608V122H115.66H115.654C118.059 121.994 120 120.043 120 117.643V103.487C120.016 97.6425 117.788 92.0244 113.774 87.7773C109.766 83.5307 104.275 80.9933 98.4421 80.6837ZM101.787 102.608V122H77.3541V102.608C77.3541 101.828 77.99 101.192 78.7696 101.192H100.372C100.742 101.192 101.107 101.342 101.373 101.607C101.638 101.872 101.787 102.232 101.787 102.608ZM98.5859 113.932C98.5859 113.556 98.4367 113.197 98.1713 112.931C97.9059 112.666 97.5465 112.517 97.1705 112.517H82.0269C81.2252 112.517 80.5728 113.164 80.5728 113.965C80.5728 114.767 81.2252 115.42 82.0269 115.42H97.0601C97.4637 115.453 97.8673 115.309 98.1604 115.022C98.4534 114.739 98.6081 114.341 98.5859 113.932ZM99.6752 106.998C99.6752 106.622 99.5259 106.263 99.2605 105.997C98.9951 105.732 98.6357 105.583 98.2597 105.583H80.9378C80.1526 105.583 79.5223 106.213 79.5223 106.998C79.5223 107.778 80.1526 108.414 80.9378 108.414H98.1606C98.5421 108.419 98.9071 108.276 99.178 108.01C99.4489 107.75 99.6037 107.391 99.6037 107.009L99.6752 106.998Z" fill="white"/>
</g>
</svg>
