<svg width="33" height="33" viewBox="0 0 33 33" fill="none" xmlns="http://www.w3.org/2000/svg">
<path fill-rule="evenodd" clip-rule="evenodd" d="M8.95723 0.472249C7.12955 0.654225 5.45123 1.33166 4.0237 2.46365C3.65825 2.75343 3.08733 3.29847 2.78517 3.64602C1.49764 5.12698 0.729074 6.90409 0.540014 8.83733C0.486662 9.38289 0.486662 23.457 0.540014 24.0025C0.82244 26.8905 2.42351 29.4469 4.9286 31.0099C6.01301 31.6864 7.32964 32.1544 8.65973 32.3361L9.0688 32.3919H16.6054C23.721 32.3919 24.1615 32.3895 24.4892 32.3476C26.5637 32.0828 28.4042 31.2076 29.8781 29.7853C31.4786 28.2407 32.4059 26.37 32.6877 24.117C32.7136 23.91 32.72 22.381 32.72 16.4076C32.72 9.33959 32.7177 8.93877 32.6748 8.6122C32.4024 6.53722 31.5292 4.72944 30.0925 3.26618C29.9014 3.07147 29.6329 2.81626 29.4958 2.69904C28.0003 1.41982 26.2135 0.660496 24.2537 0.471315C23.7535 0.423042 9.44265 0.423903 8.95723 0.472249ZM23.8446 2.91984C26.3123 3.0952 28.4481 4.50583 29.5219 6.66949C29.636 6.89942 29.7698 7.19665 29.8192 7.33001C30.0338 7.90946 30.1805 8.5969 30.2271 9.24092C30.2617 9.71999 30.2625 23.1097 30.2279 23.5883C30.1607 24.5192 29.9435 25.3197 29.5342 26.1458C29.0002 27.2234 28.223 28.1054 27.2162 28.7766C26.3258 29.3702 25.3752 29.728 24.2645 29.8876C23.9907 29.9269 23.4407 29.9308 16.9029 29.939C9.5889 29.9482 9.34991 29.9455 8.74353 29.8473C6.77922 29.5292 5.05645 28.3895 4.01572 26.7194C3.50898 25.9062 3.19237 25.0249 3.04094 24.0063C2.99994 23.7305 2.99651 23.2526 2.98841 16.7027C2.98243 11.8939 2.98806 9.56868 3.00628 9.29419C3.05143 8.61439 3.19448 7.92947 3.41648 7.33001C3.5538 6.95928 3.89908 6.28427 4.11501 5.96439C4.41965 5.51316 4.6006 5.29609 5.01438 4.88545C5.59777 4.30647 6.08654 3.96035 6.83755 3.59438C7.64752 3.19969 8.5778 2.95806 9.46546 2.91178C9.88213 2.89006 23.5333 2.89771 23.8446 2.91984ZM26.1626 5.40983C25.9455 5.4835 25.8028 5.57019 25.6514 5.72044C25.1741 6.19382 25.1764 6.97701 25.6563 7.44825C26.1524 7.9353 26.9206 7.93678 27.4097 7.45159C27.8961 6.96919 27.8958 6.19141 27.4091 5.71245C27.0829 5.39156 26.5778 5.2689 26.1626 5.40983ZM15.9609 7.82828C15.291 7.89554 14.8317 7.97627 14.3065 8.11902C13.211 8.41685 12.1242 8.96909 11.2009 9.69714C10.8509 9.97313 10.1196 10.6983 9.83996 11.0467C8.97129 12.1291 8.37661 13.3915 8.10482 14.7299C7.98072 15.3411 7.9534 15.6436 7.95327 16.4076C7.95317 17.1299 7.97055 17.3607 8.06625 17.9077C8.49343 20.3496 10.022 22.5393 12.1959 23.8233C13.2168 24.4262 14.3277 24.8057 15.5518 24.9697C15.8121 25.0046 16.049 25.0146 16.6178 25.0146C17.1867 25.0146 17.4235 25.0046 17.6839 24.9697C19.3331 24.7488 20.7849 24.1337 22.0713 23.111C22.3682 22.875 22.9041 22.3603 23.1725 22.0535C24.3852 20.667 25.1159 18.9471 25.2718 17.1123C25.3088 16.6774 25.2886 15.736 25.2338 15.3379C25.013 13.7352 24.3921 12.286 23.3952 11.0467C23.113 10.6959 22.3825 9.97089 22.0348 9.69663C20.7786 8.7056 19.296 8.08125 17.7023 7.8721C17.4134 7.83421 16.2048 7.80376 15.9609 7.82828ZM17.0791 10.2972C18.6345 10.4194 20.041 11.0772 21.1006 12.1781C22.577 13.7119 23.1444 15.8977 22.6063 17.9779C22.4001 18.7748 22.0144 19.5474 21.4826 20.2287C21.2709 20.5 20.7323 21.0345 20.4605 21.2431C19.3152 22.1222 18.0448 22.5533 16.6054 22.5512C15.5998 22.5497 14.7693 22.3598 13.8784 21.9275C13.2521 21.6237 12.755 21.2695 12.2408 20.7608C11.4909 20.0188 10.9657 19.1437 10.6777 18.1556C10.0593 16.0346 10.6143 13.758 12.1351 12.1781C12.9096 11.3734 13.9457 10.7621 14.9926 10.4921C15.7161 10.3056 16.3873 10.2429 17.0791 10.2972Z" fill="white" fill-opacity="0.65"/>
</svg>
