<svg width="37" height="37" viewBox="0 0 37 37" fill="none" xmlns="http://www.w3.org/2000/svg">
<path fill-rule="evenodd" clip-rule="evenodd" d="M3.8269 0.764648C2.17126 0.764648 0.829102 2.10681 0.829102 3.76245V33.7404C0.829102 35.396 2.17126 36.7382 3.8269 36.7382H33.8048C35.4605 36.7382 36.8026 35.396 36.8026 33.7404V3.76244C36.8026 2.10681 35.4605 0.764648 33.8048 0.764648H3.8269ZM9.73435 12.5796C11.3413 12.5796 12.644 11.2769 12.644 9.66993C12.644 8.06298 11.3413 6.76028 9.73435 6.76028C8.1274 6.76028 6.82471 8.06298 6.82471 9.66993C6.82471 11.2769 8.1274 12.5796 9.73435 12.5796ZM15.3087 14.7299H20.131V16.939C20.131 16.939 21.4395 14.3218 25 14.3218C28.176 14.3218 30.8071 15.8864 30.8071 20.6555V30.712H25.8099V21.8741C25.8099 19.0608 24.3079 18.7514 23.1634 18.7514C20.7882 18.7514 20.3816 20.8001 20.3816 22.241V30.712H15.3087V14.7299ZM12.2708 14.7299H7.19794V30.712H12.2708V14.7299Z" fill="white" fill-opacity="0.65"/>
</svg>
