<svg width="132" height="132" viewBox="0 0 132 132" fill="none" xmlns="http://www.w3.org/2000/svg">
<g opacity="0.8">
<path d="M114.165 64.1016C109.99 60.8248 104.779 59.0205 99.4933 59.0205H75.9549C69.8366 59.0205 64.0128 61.3555 59.5551 65.5954L44.8375 79.5945C44.3831 80.025 43.6867 80.0377 43.2197 79.6245L32.9174 70.5318L32.3918 68.5465C30.8333 62.6618 31.0568 56.4402 33.0341 50.685C33.1629 50.3101 33.2286 49.916 33.2286 49.5197C33.2282 47.5586 31.6567 45.9688 29.7177 45.9688H15.9814C14.0424 45.9688 12.4705 47.5586 12.4705 49.5197C12.4705 49.9165 12.5362 50.3105 12.6651 50.685C14.6423 56.4395 14.8658 62.6619 13.3073 68.5465L6.49084 94.2811C6.31429 94.9476 6.2251 95.6345 6.2251 96.3243C6.2251 100.063 8.81716 103.289 12.4353 104.054C15.8697 104.78 19.36 105.143 22.8497 105.143C26.3394 105.143 29.8297 104.78 33.264 104.054C35.4345 103.595 37.2209 102.24 38.315 100.431C40.0441 101.375 41.9903 101.897 44.0266 101.897C46.6472 101.897 49.2402 101.013 51.326 99.4069L60.5672 92.2976C60.7428 94.4396 61.1847 96.517 61.8868 98.4986C63.4033 102.776 64.0438 107.046 63.7929 111.189L63.0097 124.471C62.9547 125.374 63.2745 126.271 63.888 126.931C64.5014 127.591 65.3662 127.969 66.2612 127.969H121.452C123.223 127.969 124.685 126.511 124.71 124.719L125.222 87.3398C125.346 78.3177 121.213 69.6299 114.164 64.1009L114.165 64.1016ZM97.1365 71.7438L98.5652 74.8666L88.7093 77.9214V76.1097C89.0863 75.9302 89.4259 75.6515 89.6705 75.2515L98.2562 61.2069H98.4553C98.4828 61.2447 98.4958 61.2894 98.5287 61.3244L103.612 66.7045L97.5644 70.3452C97.0892 70.6313 96.9045 71.2359 97.1365 71.7438ZM77.0031 70.3453L71.0937 66.7879L77.3643 61.4394L85.8081 75.2519C86.0031 75.5703 86.2617 75.8067 86.5468 75.9853V78.1351L76.0022 74.8674L77.431 71.7447C77.6634 71.2363 77.4787 70.6317 77.0031 70.3457L77.0031 70.3453ZM15.9824 48.156H29.7176C30.4612 48.156 31.0665 48.7678 31.0665 49.5203C31.0665 49.673 31.0413 49.8237 30.9918 49.9681C28.9879 55.801 28.6825 62.0103 30.0531 68.0046C30.1378 68.3741 30.2062 68.7458 30.3035 69.1134L30.9999 71.7429L31.4133 73.3026H23.8496C23.2528 73.3026 22.7686 73.7914 22.7686 74.396C22.7686 75.0005 23.2528 75.4893 23.8496 75.4893H31.9925L32.6105 77.8226H13.0893L15.3964 69.1134C17.0737 62.7813 16.8358 56.1604 14.7081 49.9691C14.6586 49.8246 14.6333 49.6743 14.6333 49.5213C14.6333 48.7687 15.2383 48.1569 15.9818 48.1569L15.9824 48.156ZM26.5612 83.3041C26.7207 83.2108 26.8954 83.1424 27.0931 83.1424H32.4981C33.0949 83.1424 33.5791 83.6312 33.5791 84.2357C33.5791 84.8403 33.0949 85.3291 32.4981 85.3291H27.0931C26.4963 85.3291 26.0122 84.8403 26.0122 84.2357C26.0122 83.8317 26.2387 83.4932 26.5612 83.3041ZM29.2551 91.8889H34.66C35.2568 91.8889 35.741 92.3777 35.741 92.9822C35.741 93.5266 35.3415 93.9571 34.8271 94.0414C34.7704 94.0505 34.7195 94.0755 34.66 94.0755H29.2551C28.6583 94.0755 28.1741 93.5867 28.1741 92.9822C28.1741 92.3777 28.6583 91.8889 29.2551 91.8889ZM65.4644 125.435C65.2554 125.209 65.1504 124.916 65.1689 124.605L65.9522 111.323C66.222 106.883 65.5396 102.321 63.9235 97.7615C63.7582 97.2959 63.6226 96.819 63.4893 96.3415C61.9561 86.191 63.2744 80.8812 63.3001 80.7798C63.4546 80.198 63.1137 79.599 62.538 79.441C61.9606 79.2829 61.3679 79.63 61.2125 80.2117C61.1665 80.3835 60.3693 83.4962 60.6346 89.5008L50.018 97.6683C48.3055 98.9857 46.1787 99.7118 44.0275 99.7118C42.2885 99.7118 40.6301 99.2471 39.1694 98.4117C39.3518 97.7416 39.4752 97.0483 39.4752 96.3257C39.4752 95.6356 39.386 94.9486 39.2095 94.2825L33.9222 74.3207L41.7998 81.2737C43.1087 82.4289 45.0527 82.3916 46.3196 81.188L61.0372 67.189C64.6585 63.7432 69.2747 61.6932 74.1854 61.2919L68.5409 66.1061C68.2734 66.3348 68.1319 66.6797 68.1603 67.0318C68.1887 67.3839 68.3842 67.7001 68.6846 67.8819L75.0611 71.7212L73.5207 75.0868C73.3897 75.3729 73.3879 75.7027 73.5149 75.9924C73.6419 76.2808 73.8865 76.4985 74.1851 76.5914L86.3636 80.3656C86.4213 80.418 86.4816 80.464 86.5483 80.5032V125.783H66.2627C65.9577 125.783 65.6744 125.659 65.465 125.434L65.4644 125.435ZM122.548 124.689C122.54 125.293 122.049 125.784 121.453 125.784H112.851L112.225 113.551C111.967 108.539 112.557 103.312 113.976 98.0187C115.199 93.4564 115.704 87.5502 115.477 80.4616C115.459 79.8584 114.957 79.3414 114.362 79.4047C113.765 79.4238 113.297 79.929 113.317 80.5322C113.537 87.4037 113.056 93.0945 111.889 97.4468C110.41 102.964 109.797 108.42 110.066 113.665L110.686 125.784H88.7093V80.2091L100.384 76.5912C100.683 76.4983 100.927 76.2805 101.054 75.9922C101.181 75.7029 101.179 75.3731 101.048 75.0866L99.508 71.721L105.884 67.8816C106.167 67.7108 106.358 67.4193 106.402 67.0894C106.447 66.7596 106.341 66.4275 106.113 66.1875L101.506 61.3113C105.61 61.7013 109.574 63.2661 112.84 65.8299C119.356 70.9411 123.177 78.9707 123.061 87.3113L122.548 124.689Z" fill="white"/>
<path d="M97.2251 85.4688C97.2251 86.8494 96.3297 87.9688 95.2251 87.9688C94.1205 87.9688 93.2251 86.8495 93.2251 85.4688C93.2251 84.088 94.1205 82.9688 95.2251 82.9688C96.3297 82.9688 97.2251 84.088 97.2251 85.4688Z" fill="white"/>
<path d="M97.2251 96.4688C97.2251 97.8494 96.3297 98.9688 95.2251 98.9688C94.1205 98.9688 93.2251 97.8495 93.2251 96.4688C93.2251 95.088 94.1205 93.9688 95.2251 93.9688C96.3297 93.9688 97.2251 95.088 97.2251 96.4688Z" fill="white"/>
<path d="M97.2251 106.469C97.2251 107.849 96.3297 108.969 95.2251 108.969C94.1205 108.969 93.2251 107.849 93.2251 106.469C93.2251 105.088 94.1205 103.969 95.2251 103.969C96.3297 103.969 97.2251 105.088 97.2251 106.469Z" fill="white"/>
<path d="M97.2251 117.969C97.2251 119.073 96.3297 119.969 95.2251 119.969C94.1205 119.969 93.2251 119.073 93.2251 117.969C93.2251 116.864 94.1205 115.969 95.2251 115.969C96.3297 115.969 97.2251 116.864 97.2251 117.969Z" fill="white"/>
<path d="M33.2251 36.9687C35.4305 36.9687 37.2251 34.9508 37.2251 32.4687C37.2251 29.9867 35.4305 27.9688 33.2251 27.9688C31.0197 27.9688 29.2251 29.9867 29.2251 32.4687C29.2251 34.9508 31.0197 36.9687 33.2251 36.9687ZM33.2251 30.2187C34.328 30.2187 35.2251 31.2284 35.2251 32.4687C35.2251 33.7091 34.328 34.7187 33.2251 34.7187C32.1222 34.7187 31.2251 33.7091 31.2251 32.4687C31.2251 31.2284 32.1222 30.2187 33.2251 30.2187Z" fill="white"/>
<path d="M21.7251 25.9687C24.2062 25.9687 26.2251 23.9508 26.2251 21.4687C26.2251 18.9867 24.2062 16.9688 21.7251 16.9688C19.244 16.9688 17.2251 18.9867 17.2251 21.4687C17.2251 23.9508 19.244 25.9687 21.7251 25.9687ZM21.7251 19.2187C22.9659 19.2187 23.9751 20.2284 23.9751 21.4687C23.9751 22.7091 22.9659 23.7187 21.7251 23.7187C20.4843 23.7187 19.4751 22.7091 19.4751 21.4687C19.4751 20.2284 20.4843 19.2187 21.7251 19.2187Z" fill="white"/>
<path d="M18.2251 40.9687C20.4305 40.9687 22.2251 38.9508 22.2251 36.4687C22.2251 33.9867 20.4305 31.9688 18.2251 31.9688C16.0197 31.9688 14.2251 33.9867 14.2251 36.4687C14.2251 38.9508 16.0197 40.9687 18.2251 40.9687ZM18.2251 34.2187C19.328 34.2187 20.2251 35.2284 20.2251 36.4687C20.2251 37.7091 19.328 38.7187 18.2251 38.7187C17.1222 38.7187 16.2251 37.7091 16.2251 36.4687C16.2251 35.2284 17.1222 34.2187 18.2251 34.2187Z" fill="white"/>
<path d="M79.1251 85.9688H70.3251C69.7178 85.9688 69.2251 86.4158 69.2251 86.9688C69.2251 87.5217 69.7178 87.9688 70.3251 87.9688H79.1251C79.7324 87.9688 80.2251 87.5217 80.2251 86.9688C80.2251 86.4158 79.7324 85.9688 79.1251 85.9688Z" fill="white"/>
<path d="M67.8895 56.9686C71.5213 56.9686 74.8386 55.6201 77.3999 53.3981C80.4684 55.4641 84.1442 56.6734 88.1008 56.6734C92.1197 56.6734 95.8535 55.4321 98.9508 53.3064C101.526 55.5814 104.88 56.9688 108.561 56.9688C116.66 56.9688 123.225 50.2985 123.225 42.0706C123.225 36.8808 120.61 32.3158 116.649 29.6481C117.414 27.8427 117.841 25.8557 117.841 23.7654C117.841 15.5371 111.275 8.8673 103.177 8.8673C102.512 8.8673 101.863 8.92799 101.222 9.0147C98.55 5.35278 94.2776 2.96875 89.4463 2.96875C84.5577 2.96875 80.24 5.40851 77.5754 9.14473C76.6703 8.96721 75.7378 8.86726 74.7818 8.86726C66.6827 8.86726 60.1177 15.5375 60.1177 23.7654C60.1177 25.5744 60.451 27.3009 61.0322 28.905C56.3902 31.4059 53.2251 36.3601 53.2251 42.0706C53.2251 50.2989 59.7906 56.9687 67.8893 56.9687L67.8895 56.9686ZM88.101 54.4828C84.7491 54.4828 81.6276 53.4907 78.9769 51.803C76.2318 50.0551 74.0104 47.5497 72.5883 44.571C72.7612 44.5993 72.9351 44.6253 73.1157 44.6253H83.5627C84.4638 44.6253 85.3393 44.2479 85.9646 43.5912L87.7928 41.6712C88.0183 41.4348 88.3206 41.3043 88.645 41.3043H88.6459C88.9706 41.3052 89.2734 41.4357 89.498 41.6721L91.3137 43.5866C91.9412 44.2465 92.818 44.6253 93.72 44.6253H103.588C102.193 47.5228 100.042 49.9721 97.3858 51.704C94.7014 53.4541 91.5203 54.4828 88.101 54.4828ZM105.35 30.7266V41.2299C105.35 41.773 104.988 42.2152 104.501 42.3653C104.392 42.3987 104.283 42.4342 104.164 42.4342H93.7201C93.4003 42.4342 93.0885 42.2996 92.8661 42.0664L91.051 40.1519C90.4167 39.4833 89.5631 39.1146 88.6486 39.1132H88.6454C87.7318 39.1132 86.8788 39.4802 86.2435 40.1474L84.4149 42.0674C84.193 42.3006 83.883 42.4343 83.5628 42.4343H73.1157C72.4621 42.4343 71.9299 41.8939 71.9299 41.2299V30.4952C71.9299 30.053 72.1769 29.6819 72.5277 29.4725C72.7038 29.3675 72.8974 29.2908 73.1157 29.2908H104.164C104.458 29.2908 104.719 29.4113 104.927 29.592C105.181 29.8129 105.351 30.1296 105.351 30.4952L105.35 30.7266Z" fill="white"/>
<path d="M79.4906 33.1951C79.4502 33.2255 79.4025 33.2414 79.3657 33.2783L75.5444 37.106C75.1187 37.5325 75.1187 38.2226 75.5444 38.6491C75.5535 38.6582 75.5653 38.6605 75.5744 38.6691C75.7836 38.8646 76.0473 38.9688 76.3147 38.9688C76.5933 38.9688 76.872 38.8624 77.0849 38.6491L80.9058 34.8218C81.3315 34.3954 81.3315 33.7052 80.9058 33.2787C80.5172 32.8891 79.9173 32.8732 79.4906 33.1951Z" fill="white"/>
<path d="M86.9085 32.2746C86.8543 32.2204 86.7865 32.1931 86.725 32.1526C86.3109 31.8814 85.7657 31.906 85.3922 32.2545C85.3831 32.2627 85.3712 32.2655 85.3626 32.2741L81.5278 36.105C81.3802 36.2524 81.3023 36.4349 81.2568 36.6237C81.2258 36.7511 81.2171 36.8776 81.2326 37.0073C81.2613 37.2412 81.3478 37.4696 81.5273 37.6489C81.5647 37.6862 81.6125 37.7017 81.6535 37.7326C81.8471 37.8778 82.0693 37.9688 82.3003 37.9688C82.5799 37.9688 82.8596 37.8623 83.0732 37.6489L86.908 33.818C87.2346 33.4917 87.307 33.0126 87.134 32.6135C87.0811 32.492 87.0087 32.3751 86.9085 32.2746Z" fill="white"/>
<path d="M18.4069 53.9688H29.0433C29.6957 53.9688 30.2251 53.5217 30.2251 52.9688C30.2251 52.4158 29.6957 51.9688 29.0433 51.9688H18.4069C17.7545 51.9688 17.2251 52.4158 17.2251 52.9688C17.2251 53.5217 17.7545 53.9688 18.4069 53.9688Z" fill="white"/>
</g>
</svg>
