<svg width="132" height="132" viewBox="0 0 132 132" fill="none" xmlns="http://www.w3.org/2000/svg">
<g opacity="0.8">
<path d="M89.8968 55.8461L91.5468 54.1009C93.7405 51.7806 93.7405 48.0076 91.5468 45.6873L84.2765 37.9975L87.3515 34.7451C88.8141 35.7665 90.6515 36.4258 92.8781 36.4953C105.867 36.0838 105.872 16.1127 92.8781 15.7015C83.775 15.989 81.0609 25.885 84.7218 31.9184L81.6281 35.1906L74.3578 27.5009C72.2344 25.255 68.5265 25.25 66.4031 27.5009L64.7531 29.2461L44.0483 7.35182C43.4108 6.6577 42.3796 6.57838 41.6296 7.13366C17.0248 25.29 13.7056 63.8175 34.7296 86.3616C34.453 62.6181 67.636 61.1851 68.4796 85.5683V102.326C82.3408 102.896 95.6536 97.3681 105.454 86.9962C107.367 84.9535 109.167 82.6927 110.798 80.2931C111.323 79.4999 111.248 78.4289 110.591 77.7349L89.8968 55.8461ZM88.8937 51.2947L87.2437 53.0399L67.3969 32.0481L69.0469 30.3029C69.7594 29.5543 70.9922 29.5543 71.7 30.3029L88.8984 48.4936C89.6296 49.267 89.6296 50.5264 88.8984 51.2997L88.8937 51.2947Z" fill="white"/>
<path d="M74.1047 113.335H64.7297V85.5703C64.7297 77.9154 58.8422 71.6875 51.6041 71.6875C44.3659 71.6875 38.4785 77.9146 38.4785 85.5703V113.335H29.1035C21.6785 113.543 21.6972 125.036 29.1035 125.234H74.1035C81.5285 125.026 81.5098 113.533 74.1035 113.335H74.1047ZM51.6047 79.6215C59.0203 79.8247 59.0203 91.3172 51.6047 91.5205C44.189 91.3172 44.189 79.8248 51.6047 79.6215ZM74.1047 121.267H29.1047C26.6297 121.223 26.6531 117.341 29.1047 117.301H40.3547H74.1047C76.5797 117.346 76.5563 121.228 74.1047 121.267Z" fill="white"/>
</g>
</svg>
