<svg width="662" height="176" viewBox="0 0 662 176" fill="none" xmlns="http://www.w3.org/2000/svg">
<g style="mix-blend-mode:plus-lighter" filter="url(#filter0_d_469_133)">
<path d="M562.495 167.734L599.62 73.2344H617.71L654.565 167.734H633.91L614.74 116.839C614.2 115.309 613.525 113.419 612.715 111.169C611.995 108.919 611.23 106.534 610.42 104.014C609.61 101.494 608.845 99.1094 608.125 96.8594C607.495 94.5194 606.955 92.6294 606.505 91.1894L610.15 91.0544C609.61 93.0344 608.98 95.1494 608.26 97.3994C607.63 99.5594 606.91 101.809 606.1 104.149C605.38 106.489 604.615 108.739 603.805 110.899C603.085 113.059 602.365 115.129 601.645 117.109L582.61 167.734H562.495ZM579.775 147.889L586.525 131.419H629.59L636.475 147.889H579.775Z" fill="url(#paint0_linear_469_133)"/>
</g>
<g style="mix-blend-mode:plus-lighter" filter="url(#filter1_d_469_133)">
<path d="M479.042 167.734V73.2344H520.892C526.832 73.2344 532.141 74.5394 536.822 77.1494C541.592 79.7594 545.372 83.3594 548.162 87.9494C550.952 92.4494 552.347 97.6244 552.347 103.474C552.347 109.144 550.952 114.274 548.162 118.864C545.372 123.454 541.592 127.099 536.822 129.799C532.141 132.499 526.832 133.849 520.892 133.849H498.482V167.734H479.042ZM532.772 167.734L508.741 124.939L529.397 121.564L556.126 167.869L532.772 167.734ZM498.482 117.244H520.082C522.512 117.244 524.626 116.704 526.426 115.624C528.316 114.454 529.756 112.879 530.746 110.899C531.826 108.919 532.366 106.669 532.366 104.149C532.366 101.539 531.737 99.2444 530.477 97.2644C529.217 95.1944 527.462 93.6194 525.212 92.5394C522.962 91.3694 520.351 90.7844 517.382 90.7844H498.482V117.244Z" fill="url(#paint1_linear_469_133)"/>
</g>
<g style="mix-blend-mode:plus-lighter" filter="url(#filter2_d_469_133)">
<path d="M413.714 167.734V91.4594H386.444V73.2344H462.314V91.4594H433.964V167.734H413.714Z" fill="url(#paint2_linear_469_133)"/>
</g>
<g style="mix-blend-mode:plus-lighter" filter="url(#filter3_d_469_133)">
<path d="M339.618 169.085C330.798 169.085 323.238 167.51 316.938 164.36C310.728 161.12 305.373 156.44 300.873 150.32L313.563 136.01C317.973 142.13 322.338 146.315 326.658 148.565C331.068 150.725 335.793 151.805 340.833 151.805C343.623 151.805 346.098 151.4 348.258 150.59C350.508 149.78 352.263 148.655 353.523 147.215C354.873 145.775 355.548 144.11 355.548 142.22C355.548 140.78 355.233 139.475 354.603 138.305C353.973 137.045 353.073 135.965 351.903 135.065C350.733 134.075 349.338 133.22 347.718 132.5C346.098 131.69 344.298 131.015 342.318 130.475C340.338 129.935 338.178 129.44 335.838 128.99C330.798 127.91 326.388 126.515 322.608 124.805C318.828 123.095 315.678 121.025 313.158 118.595C310.638 116.165 308.748 113.375 307.488 110.225C306.318 106.985 305.733 103.385 305.733 99.4247C305.733 93.8447 307.308 88.9847 310.458 84.8447C313.608 80.6147 317.793 77.3297 323.013 74.9897C328.233 72.5597 333.993 71.3447 340.293 71.3447C348.843 71.3447 355.863 72.7847 361.353 75.6647C366.933 78.5447 371.388 82.5947 374.718 87.8147L361.758 100.505C358.968 96.6347 355.773 93.7097 352.173 91.7297C348.573 89.7497 344.703 88.7597 340.563 88.7597C337.683 88.7597 335.118 89.1647 332.868 89.9747C330.708 90.6947 329.043 91.8197 327.873 93.3497C326.703 94.7897 326.118 96.4997 326.118 98.4797C326.118 100.1 326.523 101.54 327.333 102.8C328.143 104.06 329.268 105.185 330.708 106.175C332.238 107.075 334.083 107.885 336.243 108.605C338.403 109.325 340.788 109.91 343.398 110.36C348.348 111.35 352.803 112.7 356.763 114.41C360.723 116.03 364.098 118.01 366.888 120.35C369.768 122.69 371.973 125.39 373.503 128.45C375.033 131.51 375.798 134.93 375.798 138.71C375.798 145.1 374.268 150.545 371.208 155.045C368.148 159.545 363.918 163.01 358.518 165.44C353.118 167.87 346.818 169.085 339.618 169.085Z" fill="url(#paint3_linear_469_133)"/>
</g>
<g style="mix-blend-mode:plus-lighter" filter="url(#filter4_d_469_133)">
<path d="M203.505 167.734L240.63 73.2344H258.72L295.575 167.734H274.92L255.75 116.839C255.21 115.309 254.535 113.419 253.725 111.169C253.005 108.919 252.24 106.534 251.43 104.014C250.62 101.494 249.855 99.1094 249.135 96.8594C248.505 94.5194 247.965 92.6294 247.515 91.1894L251.16 91.0544C250.62 93.0344 249.99 95.1494 249.27 97.3994C248.64 99.5594 247.92 101.809 247.11 104.149C246.39 106.489 245.625 108.739 244.815 110.899C244.095 113.059 243.375 115.129 242.655 117.109L223.62 167.734H203.505ZM220.785 147.889L227.535 131.419H270.6L277.485 147.889H220.785Z" fill="url(#paint4_linear_469_133)"/>
</g>
<g style="mix-blend-mode:plus-lighter" filter="url(#filter5_d_469_133)">
<path d="M128.653 101.735L99.6279 7.23486H120.553L136.078 60.0199C136.888 62.6299 137.563 65.4199 138.103 68.3899C138.643 71.2699 139.093 73.9699 139.453 76.4899C139.903 79.0099 140.218 80.9899 140.398 82.4299H137.023C137.833 78.5599 138.463 75.3199 138.913 72.7099C139.453 70.0999 139.993 67.8049 140.533 65.8249C141.073 63.8449 141.658 61.9099 142.288 60.0199L157.408 20.8699H174.148L188.863 60.0199C189.853 62.7199 190.663 65.3299 191.293 67.8499C192.013 70.2799 192.598 72.6199 193.048 74.8699C193.498 77.1199 193.948 79.3699 194.398 81.6199L191.293 82.2949C191.563 80.3149 191.788 78.6499 191.968 77.2999C192.148 75.9499 192.283 74.6899 192.373 73.5199C192.463 72.3499 192.598 71.1799 192.778 70.0099C192.958 68.7499 193.228 67.3099 193.588 65.6899C194.038 64.0699 194.578 62.1349 195.208 59.8849L210.598 7.23486H231.118L202.093 101.735H187.108L163.753 45.8449L165.778 46.2499L144.043 101.735H128.653Z" fill="url(#paint5_linear_469_133)"/>
</g>
<g style="mix-blend-mode:plus-lighter" filter="url(#filter6_d_469_133)">
<path d="M47.2672 102.545C39.6172 102.545 32.7771 100.97 26.7472 97.8196C20.8072 94.5796 16.1271 90.1696 12.7071 84.5896C9.28715 78.9196 7.57715 72.5296 7.57715 65.4196V7.09961H27.8272V64.2046C27.8272 67.9846 28.6821 71.4046 30.3921 74.4646C32.1921 77.4346 34.5771 79.8196 37.5471 81.6196C40.5171 83.4196 43.7572 84.3196 47.2672 84.3196C50.9572 84.3196 54.2871 83.4196 57.2571 81.6196C60.3171 79.8196 62.7022 77.4346 64.4122 74.4646C66.2122 71.4046 67.1122 67.9846 67.1122 64.2046V7.09961H86.6871V65.4196C86.6871 72.5296 84.9772 78.9196 81.5572 84.5896C78.2272 90.1696 73.5922 94.5796 67.6522 97.8196C61.7122 100.97 54.9172 102.545 47.2672 102.545Z" fill="url(#paint6_linear_469_133)"/>
</g>
<defs>
<filter id="filter0_d_469_133" x="555.695" y="66.4344" width="105.67" height="108.1" filterUnits="userSpaceOnUse" color-interpolation-filters="sRGB">
<feFlood flood-opacity="0" result="BackgroundImageFix"/>
<feColorMatrix in="SourceAlpha" type="matrix" values="0 0 0 0 0 0 0 0 0 0 0 0 0 0 0 0 0 0 127 0" result="hardAlpha"/>
<feOffset/>
<feGaussianBlur stdDeviation="3.4"/>
<feComposite in2="hardAlpha" operator="out"/>
<feColorMatrix type="matrix" values="0 0 0 0 0 0 0 0 0 0 0 0 0 0 0 0 0 0 0.25 0"/>
<feBlend mode="normal" in2="BackgroundImageFix" result="effect1_dropShadow_469_133"/>
<feBlend mode="normal" in="SourceGraphic" in2="effect1_dropShadow_469_133" result="shape"/>
</filter>
<filter id="filter1_d_469_133" x="472.242" y="66.4344" width="90.685" height="108.235" filterUnits="userSpaceOnUse" color-interpolation-filters="sRGB">
<feFlood flood-opacity="0" result="BackgroundImageFix"/>
<feColorMatrix in="SourceAlpha" type="matrix" values="0 0 0 0 0 0 0 0 0 0 0 0 0 0 0 0 0 0 127 0" result="hardAlpha"/>
<feOffset/>
<feGaussianBlur stdDeviation="3.4"/>
<feComposite in2="hardAlpha" operator="out"/>
<feColorMatrix type="matrix" values="0 0 0 0 0 0 0 0 0 0 0 0 0 0 0 0 0 0 0.25 0"/>
<feBlend mode="normal" in2="BackgroundImageFix" result="effect1_dropShadow_469_133"/>
<feBlend mode="normal" in="SourceGraphic" in2="effect1_dropShadow_469_133" result="shape"/>
</filter>
<filter id="filter2_d_469_133" x="379.644" y="66.4344" width="89.4701" height="108.1" filterUnits="userSpaceOnUse" color-interpolation-filters="sRGB">
<feFlood flood-opacity="0" result="BackgroundImageFix"/>
<feColorMatrix in="SourceAlpha" type="matrix" values="0 0 0 0 0 0 0 0 0 0 0 0 0 0 0 0 0 0 127 0" result="hardAlpha"/>
<feOffset/>
<feGaussianBlur stdDeviation="3.4"/>
<feComposite in2="hardAlpha" operator="out"/>
<feColorMatrix type="matrix" values="0 0 0 0 0 0 0 0 0 0 0 0 0 0 0 0 0 0 0.25 0"/>
<feBlend mode="normal" in2="BackgroundImageFix" result="effect1_dropShadow_469_133"/>
<feBlend mode="normal" in="SourceGraphic" in2="effect1_dropShadow_469_133" result="shape"/>
</filter>
<filter id="filter3_d_469_133" x="294.073" y="64.5447" width="88.525" height="111.34" filterUnits="userSpaceOnUse" color-interpolation-filters="sRGB">
<feFlood flood-opacity="0" result="BackgroundImageFix"/>
<feColorMatrix in="SourceAlpha" type="matrix" values="0 0 0 0 0 0 0 0 0 0 0 0 0 0 0 0 0 0 127 0" result="hardAlpha"/>
<feOffset/>
<feGaussianBlur stdDeviation="3.4"/>
<feComposite in2="hardAlpha" operator="out"/>
<feColorMatrix type="matrix" values="0 0 0 0 0 0 0 0 0 0 0 0 0 0 0 0 0 0 0.25 0"/>
<feBlend mode="normal" in2="BackgroundImageFix" result="effect1_dropShadow_469_133"/>
<feBlend mode="normal" in="SourceGraphic" in2="effect1_dropShadow_469_133" result="shape"/>
</filter>
<filter id="filter4_d_469_133" x="196.705" y="66.4344" width="105.67" height="108.1" filterUnits="userSpaceOnUse" color-interpolation-filters="sRGB">
<feFlood flood-opacity="0" result="BackgroundImageFix"/>
<feColorMatrix in="SourceAlpha" type="matrix" values="0 0 0 0 0 0 0 0 0 0 0 0 0 0 0 0 0 0 127 0" result="hardAlpha"/>
<feOffset/>
<feGaussianBlur stdDeviation="3.4"/>
<feComposite in2="hardAlpha" operator="out"/>
<feColorMatrix type="matrix" values="0 0 0 0 0 0 0 0 0 0 0 0 0 0 0 0 0 0 0.25 0"/>
<feBlend mode="normal" in2="BackgroundImageFix" result="effect1_dropShadow_469_133"/>
<feBlend mode="normal" in="SourceGraphic" in2="effect1_dropShadow_469_133" result="shape"/>
</filter>
<filter id="filter5_d_469_133" x="92.8279" y="0.434863" width="145.09" height="108.1" filterUnits="userSpaceOnUse" color-interpolation-filters="sRGB">
<feFlood flood-opacity="0" result="BackgroundImageFix"/>
<feColorMatrix in="SourceAlpha" type="matrix" values="0 0 0 0 0 0 0 0 0 0 0 0 0 0 0 0 0 0 127 0" result="hardAlpha"/>
<feOffset/>
<feGaussianBlur stdDeviation="3.4"/>
<feComposite in2="hardAlpha" operator="out"/>
<feColorMatrix type="matrix" values="0 0 0 0 0 0 0 0 0 0 0 0 0 0 0 0 0 0 0.25 0"/>
<feBlend mode="normal" in2="BackgroundImageFix" result="effect1_dropShadow_469_133"/>
<feBlend mode="normal" in="SourceGraphic" in2="effect1_dropShadow_469_133" result="shape"/>
</filter>
<filter id="filter6_d_469_133" x="0.777148" y="0.299609" width="92.7101" height="109.045" filterUnits="userSpaceOnUse" color-interpolation-filters="sRGB">
<feFlood flood-opacity="0" result="BackgroundImageFix"/>
<feColorMatrix in="SourceAlpha" type="matrix" values="0 0 0 0 0 0 0 0 0 0 0 0 0 0 0 0 0 0 127 0" result="hardAlpha"/>
<feOffset/>
<feGaussianBlur stdDeviation="3.4"/>
<feComposite in2="hardAlpha" operator="out"/>
<feColorMatrix type="matrix" values="0 0 0 0 0 0 0 0 0 0 0 0 0 0 0 0 0 0 0.25 0"/>
<feBlend mode="normal" in2="BackgroundImageFix" result="effect1_dropShadow_469_133"/>
<feBlend mode="normal" in="SourceGraphic" in2="effect1_dropShadow_469_133" result="shape"/>
</filter>
<linearGradient id="paint0_linear_469_133" x1="-3.89796" y1="84.2344" x2="656.102" y2="84.2344" gradientUnits="userSpaceOnUse">
<stop stop-color="#FCA5FF"/>
<stop offset="1" stop-color="#9B44E7"/>
</linearGradient>
<linearGradient id="paint1_linear_469_133" x1="-3.89784" y1="84.2344" x2="656.102" y2="84.2344" gradientUnits="userSpaceOnUse">
<stop stop-color="#FCA5FF"/>
<stop offset="1" stop-color="#9B44E7"/>
</linearGradient>
<linearGradient id="paint2_linear_469_133" x1="-3.89807" y1="84.2344" x2="656.102" y2="84.2344" gradientUnits="userSpaceOnUse">
<stop stop-color="#FCA5FF"/>
<stop offset="1" stop-color="#9B44E7"/>
</linearGradient>
<linearGradient id="paint3_linear_469_133" x1="-3.89789" y1="84.2347" x2="656.102" y2="84.2347" gradientUnits="userSpaceOnUse">
<stop stop-color="#FCA5FF"/>
<stop offset="1" stop-color="#9B44E7"/>
</linearGradient>
<linearGradient id="paint4_linear_469_133" x1="-3.89789" y1="84.2344" x2="656.102" y2="84.2344" gradientUnits="userSpaceOnUse">
<stop stop-color="#FCA5FF"/>
<stop offset="1" stop-color="#9B44E7"/>
</linearGradient>
<linearGradient id="paint5_linear_469_133" x1="-3.89807" y1="84.2349" x2="656.102" y2="84.2349" gradientUnits="userSpaceOnUse">
<stop stop-color="#FCA5FF"/>
<stop offset="1" stop-color="#9B44E7"/>
</linearGradient>
<linearGradient id="paint6_linear_469_133" x1="-3.89783" y1="84.2346" x2="656.102" y2="84.2346" gradientUnits="userSpaceOnUse">
<stop stop-color="#FCA5FF"/>
<stop offset="1" stop-color="#9B44E7"/>
</linearGradient>
</defs>
</svg>
